<svg width="634" height="147" viewBox="0 0 634 147" fill="none" xmlns="http://www.w3.org/2000/svg">
<path d="M8.70228e-06 88L40.586 24.3H61.698L76.804 88H55.419L45.136 34.219H53.508L22.659 88H8.70228e-06ZM18.746 76.898L27.3 61.428H56.602L58.968 76.898H18.746ZM102.81 106.564C97.7748 106.564 93.1641 106.048 88.9781 105.017C84.8528 103.986 81.2431 102.439 78.1491 100.376L86.8851 86.362C88.8871 87.8787 91.3441 89.0617 94.2561 89.911C97.2288 90.821 100.201 91.276 103.174 91.276C107.178 91.276 110.09 90.4267 111.91 88.728C113.73 87.09 114.943 84.7847 115.55 81.812L116.824 75.442L120.555 61.246L123.74 45.776L125.196 38.223H144.761L136.844 77.99C134.842 88.1213 130.899 95.4013 125.014 99.83C119.19 104.319 111.789 106.564 102.81 106.564ZM103.265 85.27C99.6251 85.27 96.1671 84.4207 92.8911 82.722C89.6151 81.0233 86.9458 78.5663 84.8831 75.351C82.8204 72.1357 81.7891 68.2833 81.7891 63.794C81.7891 60.0933 82.4564 56.6657 83.7911 53.511C85.1864 50.2957 87.0974 47.4747 89.5241 45.048C92.0114 42.6213 94.8628 40.7407 98.0781 39.406C101.354 38.0107 104.842 37.313 108.543 37.313C112.244 37.313 115.459 38.041 118.189 39.497C120.98 40.953 122.982 43.4403 124.195 46.959C125.408 50.417 125.499 55.1793 124.468 61.246C123.558 66.706 122.132 71.2257 120.191 74.805C118.25 78.3237 115.853 80.9627 113.002 82.722C110.151 84.4207 106.905 85.27 103.265 85.27ZM109.817 69.163C111.576 69.163 113.123 68.799 114.458 68.071C115.793 67.2823 116.824 66.1903 117.552 64.795C118.28 63.3997 118.644 61.7617 118.644 59.881C118.644 58.0003 118.007 56.4837 116.733 55.331C115.52 54.1177 113.76 53.511 111.455 53.511C109.696 53.511 108.149 53.9053 106.814 54.694C105.479 55.422 104.418 56.4837 103.629 57.879C102.901 59.2743 102.537 60.9123 102.537 62.793C102.537 64.6737 103.174 66.2207 104.448 67.434C105.783 68.5867 107.572 69.163 109.817 69.163ZM143.845 88L153.764 38.223H173.147L170.326 52.328L168.415 48.324C170.478 44.3807 173.329 41.5597 176.969 39.861C180.67 38.1623 184.886 37.313 189.618 37.313L185.978 55.513C185.129 55.3917 184.34 55.3007 183.612 55.24C182.945 55.1793 182.247 55.149 181.519 55.149C178.122 55.149 175.362 55.9073 173.238 57.424C171.176 58.9407 169.78 61.4583 169.052 64.977L164.411 88H143.845ZM185.346 88L195.265 38.223H215.74L205.821 88H185.346ZM207.732 34.219C204.153 34.219 201.302 33.2787 199.178 31.398C197.116 29.5173 196.084 27.212 196.084 24.482C196.084 21.2667 197.267 18.5973 199.633 16.474C202.06 14.3507 205.245 13.289 209.188 13.289C212.768 13.289 215.589 14.1687 217.651 15.928C219.775 17.6873 220.836 19.932 220.836 22.662C220.836 26.0593 219.623 28.85 217.196 31.034C214.83 33.1573 211.676 34.219 207.732 34.219ZM240.874 89.456C237.113 89.456 233.503 89.183 230.045 88.637C226.587 88.091 223.432 87.3327 220.581 86.362C217.79 85.3307 215.364 84.2083 213.301 82.995L221.582 67.161C223.948 68.4957 226.314 69.618 228.68 70.528C231.107 71.3773 233.503 72.0143 235.869 72.439C238.296 72.8637 240.692 73.076 243.058 73.076C244.939 73.076 246.486 72.9243 247.699 72.621C248.973 72.3177 249.913 71.893 250.52 71.347C251.187 70.7403 251.521 70.073 251.521 69.345C251.521 68.3743 250.975 67.5857 249.883 66.979C248.791 66.3723 247.335 65.8263 245.515 65.341C243.756 64.8557 241.784 64.3703 239.6 63.885C237.477 63.339 235.323 62.6717 233.139 61.883C230.955 61.0337 228.953 59.972 227.133 58.698C225.374 57.424 223.948 55.8163 222.856 53.875C221.764 51.9337 221.218 49.5677 221.218 46.777C221.218 41.9237 222.492 37.7073 225.04 34.128C227.649 30.5487 231.349 27.7883 236.142 25.847C240.996 23.845 246.759 22.844 253.432 22.844C258.164 22.844 262.563 23.3293 266.627 24.3C270.753 25.21 274.302 26.5447 277.274 28.304L269.539 43.956C266.991 42.3787 264.201 41.1957 261.167 40.407C258.195 39.6183 255.161 39.224 252.067 39.224C250.005 39.224 248.275 39.4363 246.88 39.861C245.485 40.225 244.423 40.7407 243.695 41.408C243.028 42.0753 242.694 42.773 242.694 43.501C242.694 44.4717 243.24 45.2907 244.332 45.958C245.424 46.5647 246.88 47.1107 248.7 47.596C250.52 48.0207 252.492 48.506 254.615 49.052C256.799 49.5373 258.953 50.1743 261.076 50.963C263.26 51.691 265.262 52.692 267.082 53.966C268.902 55.1793 270.358 56.7567 271.45 58.698C272.542 60.5787 273.088 62.9143 273.088 65.705C273.088 70.437 271.784 74.5927 269.175 78.172C266.567 81.6907 262.836 84.451 257.982 86.453C253.19 88.455 247.487 89.456 240.874 89.456ZM304.413 88.91C298.953 88.91 294.16 87.9697 290.035 86.089C285.97 84.2083 282.785 81.539 280.48 78.081C278.174 74.623 277.022 70.5583 277.022 65.887C277.022 60.427 278.296 55.5433 280.844 51.236C283.392 46.9287 286.971 43.5313 291.582 41.044C296.253 38.5567 301.683 37.313 307.871 37.313C313.209 37.313 317.759 38.2533 321.521 40.134C325.282 42.0147 328.164 44.593 330.166 47.869C332.168 51.145 333.169 54.9367 333.169 59.244C333.169 60.7607 333.047 62.247 332.805 63.703C332.623 65.159 332.38 66.5543 332.077 67.889H293.402L295.313 57.97H322.613L314.059 60.609C314.544 58.6677 314.514 57.0297 313.968 55.695C313.482 54.2997 312.633 53.238 311.42 52.51C310.206 51.7213 308.72 51.327 306.961 51.327C304.473 51.327 302.502 51.9943 301.046 53.329C299.59 54.6637 298.528 56.3927 297.861 58.516C297.254 60.6393 296.951 62.8537 296.951 65.159C296.951 68.253 297.77 70.4673 299.408 71.802C301.106 73.076 303.563 73.713 306.779 73.713C308.659 73.713 310.54 73.44 312.421 72.894C314.301 72.2873 316.03 71.4077 317.608 70.255L326.162 82.722C322.764 85.0273 319.215 86.635 315.515 87.545C311.875 88.455 308.174 88.91 304.413 88.91ZM333.755 88L343.674 38.223H363.057L360.236 52.328L358.325 48.324C360.387 44.3807 363.239 41.5597 366.879 39.861C370.579 38.1623 374.796 37.313 379.528 37.313L375.888 55.513C375.038 55.3917 374.25 55.3007 373.522 55.24C372.854 55.1793 372.157 55.149 371.429 55.149C368.031 55.149 365.271 55.9073 363.148 57.424C361.085 58.9407 359.69 61.4583 358.962 64.977L354.321 88H333.755ZM390.785 88L380.684 38.223H400.977L408.439 78.718H397.792L421.725 38.223H442.018L412.079 88H390.785ZM435.152 88L445.071 38.223H465.546L455.627 88H435.152ZM457.538 34.219C453.959 34.219 451.107 33.2787 448.984 31.398C446.921 29.5173 445.89 27.212 445.89 24.482C445.89 21.2667 447.073 18.5973 449.439 16.474C451.866 14.3507 455.051 13.289 458.994 13.289C462.573 13.289 465.394 14.1687 467.457 15.928C469.58 17.6873 470.642 19.932 470.642 22.662C470.642 26.0593 469.429 28.85 467.002 31.034C464.636 33.1573 461.481 34.219 457.538 34.219ZM494.047 88.91C488.587 88.91 483.824 87.9697 479.76 86.089C475.695 84.1477 472.54 81.448 470.296 77.99C468.051 74.532 466.929 70.4977 466.929 65.887C466.929 60.427 468.263 55.5433 470.933 51.236C473.602 46.9287 477.303 43.5313 482.035 41.044C486.767 38.5567 492.196 37.313 498.324 37.313C504.269 37.313 509.426 38.6173 513.794 41.226C518.162 43.8347 521.225 47.3837 522.985 51.873L505.513 59.881C504.663 57.5757 503.511 55.9377 502.055 54.967C500.659 53.9963 499.082 53.511 497.323 53.511C495.503 53.511 493.865 53.9963 492.409 54.967C490.953 55.877 489.8 57.151 488.951 58.789C488.162 60.427 487.768 62.3683 487.768 64.613C487.768 66.979 488.435 68.9203 489.77 70.437C491.104 71.9537 493.046 72.712 495.594 72.712C497.596 72.712 499.355 72.2267 500.872 71.256C502.388 70.2853 503.723 68.6473 504.876 66.342L519.891 75.078C517.464 79.446 514.006 82.8433 509.517 85.27C505.088 87.6967 499.931 88.91 494.047 88.91ZM549.864 88.91C544.404 88.91 539.611 87.9697 535.486 86.089C531.421 84.2083 528.236 81.539 525.931 78.081C523.626 74.623 522.473 70.5583 522.473 65.887C522.473 60.427 523.747 55.5433 526.295 51.236C528.843 46.9287 532.422 43.5313 537.033 41.044C541.704 38.5567 547.134 37.313 553.322 37.313C558.661 37.313 563.211 38.2533 566.972 40.134C570.733 42.0147 573.615 44.593 575.617 47.869C577.619 51.145 578.62 54.9367 578.62 59.244C578.62 60.7607 578.499 62.247 578.256 63.703C578.074 65.159 577.831 66.5543 577.528 67.889H538.853L540.764 57.97H568.064L559.51 60.609C559.995 58.6677 559.965 57.0297 559.419 55.695C558.934 54.2997 558.084 53.238 556.871 52.51C555.658 51.7213 554.171 51.327 552.412 51.327C549.925 51.327 547.953 51.9943 546.497 53.329C545.041 54.6637 543.979 56.3927 543.312 58.516C542.705 60.6393 542.402 62.8537 542.402 65.159C542.402 68.253 543.221 70.4673 544.859 71.802C546.558 73.076 549.015 73.713 552.23 73.713C554.111 73.713 555.991 73.44 557.872 72.894C559.753 72.2873 561.482 71.4077 563.059 70.255L571.613 82.722C568.216 85.0273 564.667 86.635 560.966 87.545C557.326 88.455 553.625 88.91 549.864 88.91ZM599.954 88.91C595.525 88.91 591.309 88.4853 587.305 87.636C583.361 86.726 580.298 85.634 578.114 84.36L585.212 70.346C587.699 71.8627 590.49 73.0153 593.584 73.804C596.738 74.532 599.711 74.896 602.502 74.896C604.807 74.896 606.384 74.6837 607.234 74.259C608.144 73.7737 608.599 73.1973 608.599 72.53C608.599 71.802 607.992 71.2863 606.779 70.983C605.565 70.619 603.988 70.3157 602.047 70.073C600.166 69.8303 598.164 69.4663 596.041 68.981C593.917 68.4957 591.885 67.798 589.944 66.888C588.063 65.9173 586.516 64.5827 585.303 62.884C584.089 61.1853 583.483 58.9407 583.483 56.15C583.483 51.8427 584.726 48.324 587.214 45.594C589.762 42.8033 593.159 40.7407 597.406 39.406C601.652 38.0107 606.354 37.313 611.511 37.313C615.151 37.313 618.639 37.6467 621.976 38.314C625.373 38.9207 628.376 39.8307 630.985 41.044L623.887 55.058C621.278 53.5413 618.669 52.5403 616.061 52.055C613.513 51.5697 611.177 51.327 609.054 51.327C606.688 51.327 605.05 51.6 604.14 52.146C603.23 52.6313 602.775 53.1773 602.775 53.784C602.775 54.512 603.381 55.058 604.595 55.422C605.808 55.786 607.355 56.1197 609.236 56.423C611.116 56.6657 613.118 57.0297 615.242 57.515C617.426 57.9397 619.458 58.6373 621.339 59.608C623.219 60.518 624.766 61.8223 625.98 63.521C627.193 65.2197 627.8 67.4643 627.8 70.255C627.8 74.3803 626.526 77.8383 623.978 80.629C621.49 83.4197 618.123 85.5127 613.877 86.908C609.691 88.2427 605.05 88.91 599.954 88.91Z" fill="#756732"/>
<path d="M115.734 28H112.657C103.311 28 95.734 35.5767 95.734 44.9231V44.9231C95.734 46.6224 97.1116 48 98.8109 48H108.734C112.6 48 115.734 44.866 115.734 41V28Z" fill="#756732"/>
<path d="M71.8762 52.14V55.2169C71.8762 64.5633 79.4529 72.14 88.7993 72.14V72.14C90.4986 72.14 91.8762 70.7624 91.8762 69.0631V59.14C91.8762 55.274 88.7422 52.14 84.8762 52.14H71.8762Z" fill="#756732"/>
<path d="M271.14 131C270.338 131 269.679 130.757 269.163 130.27C268.648 129.754 268.39 129.124 268.39 128.379V103.458H273.975V128.379C273.975 129.124 273.703 129.754 273.159 130.27C272.643 130.757 271.97 131 271.14 131ZM261.644 105.865C260.899 105.865 260.269 105.635 259.753 105.177C259.266 104.719 259.023 104.117 259.023 103.372C259.023 102.628 259.266 102.04 259.753 101.611C260.269 101.153 260.899 100.923 261.644 100.923H280.721C281.466 100.923 282.082 101.153 282.569 101.611C283.084 102.069 283.342 102.671 283.342 103.415C283.342 104.16 283.084 104.762 282.569 105.22C282.082 105.65 281.466 105.865 280.721 105.865H261.644ZM287.441 131C286.697 131 286.081 130.757 285.594 130.27C285.107 129.754 284.863 129.124 284.863 128.379V110.634C284.863 109.889 285.107 109.273 285.594 108.786C286.081 108.271 286.697 108.013 287.441 108.013C288.186 108.013 288.802 108.271 289.289 108.786C289.776 109.273 290.019 109.889 290.019 110.634V114.673L289.719 111.794C290.034 111.106 290.435 110.505 290.922 109.989C291.437 109.445 292.01 109.001 292.64 108.657C293.271 108.285 293.944 108.013 294.66 107.841C295.376 107.669 296.092 107.583 296.808 107.583C297.667 107.583 298.384 107.827 298.956 108.314C299.558 108.801 299.859 109.373 299.859 110.032C299.859 110.978 299.615 111.665 299.128 112.095C298.641 112.496 298.111 112.696 297.539 112.696C296.994 112.696 296.493 112.596 296.035 112.395C295.605 112.195 295.104 112.095 294.531 112.095C294.015 112.095 293.485 112.224 292.941 112.481C292.426 112.711 291.939 113.083 291.48 113.599C291.051 114.114 290.693 114.759 290.406 115.532C290.148 116.277 290.019 117.165 290.019 118.196V128.379C290.019 129.124 289.776 129.754 289.289 130.27C288.802 130.757 288.186 131 287.441 131ZM321.809 107.583C322.554 107.583 323.17 107.827 323.657 108.314C324.144 108.801 324.387 109.431 324.387 110.204V128.379C324.387 129.124 324.144 129.754 323.657 130.27C323.17 130.757 322.554 131 321.809 131C321.065 131 320.449 130.757 319.962 130.27C319.475 129.754 319.231 129.124 319.231 128.379V126.274L320.177 126.66C320.177 127.033 319.976 127.491 319.575 128.035C319.174 128.551 318.63 129.067 317.942 129.582C317.255 130.098 316.439 130.542 315.493 130.914C314.577 131.258 313.574 131.43 312.486 131.43C310.509 131.43 308.719 130.928 307.115 129.926C305.511 128.895 304.236 127.491 303.291 125.715C302.374 123.911 301.916 121.848 301.916 119.528C301.916 117.179 302.374 115.117 303.291 113.341C304.236 111.536 305.496 110.133 307.072 109.13C308.647 108.099 310.395 107.583 312.314 107.583C313.545 107.583 314.677 107.769 315.708 108.142C316.739 108.514 317.627 108.987 318.372 109.56C319.145 110.133 319.733 110.72 320.134 111.321C320.563 111.894 320.778 112.381 320.778 112.782L319.231 113.341V110.204C319.231 109.459 319.475 108.844 319.962 108.357C320.449 107.841 321.065 107.583 321.809 107.583ZM313.13 126.703C314.39 126.703 315.493 126.388 316.439 125.758C317.384 125.128 318.114 124.269 318.63 123.18C319.174 122.092 319.446 120.874 319.446 119.528C319.446 118.153 319.174 116.921 318.63 115.833C318.114 114.744 317.384 113.885 316.439 113.255C315.493 112.625 314.39 112.31 313.13 112.31C311.898 112.31 310.81 112.625 309.865 113.255C308.919 113.885 308.175 114.744 307.63 115.833C307.115 116.921 306.857 118.153 306.857 119.528C306.857 120.874 307.115 122.092 307.63 123.18C308.175 124.269 308.919 125.128 309.865 125.758C310.81 126.388 311.898 126.703 313.13 126.703ZM330.498 108.013C331.042 108.013 331.543 108.156 332.001 108.443C332.46 108.7 332.804 109.101 333.033 109.646L339.349 124.082L338.404 124.512L344.849 109.689C345.335 108.543 346.095 107.999 347.126 108.056C347.842 108.056 348.415 108.285 348.844 108.743C349.303 109.173 349.532 109.717 349.532 110.376C349.532 110.577 349.489 110.791 349.403 111.021C349.346 111.25 349.274 111.465 349.188 111.665L341.153 129.367C340.695 130.398 339.965 130.943 338.962 131C338.418 131.086 337.888 130.986 337.372 130.699C336.885 130.413 336.513 129.969 336.255 129.367L328.263 111.665C328.206 111.522 328.134 111.336 328.049 111.106C327.991 110.877 327.963 110.605 327.963 110.29C327.963 109.774 328.192 109.273 328.65 108.786C329.108 108.271 329.724 108.013 330.498 108.013ZM372.329 107.583C373.073 107.583 373.689 107.827 374.176 108.314C374.663 108.801 374.907 109.431 374.907 110.204V128.379C374.907 129.124 374.663 129.754 374.176 130.27C373.689 130.757 373.073 131 372.329 131C371.584 131 370.968 130.757 370.481 130.27C369.994 129.754 369.751 129.124 369.751 128.379V126.274L370.696 126.66C370.696 127.033 370.495 127.491 370.094 128.035C369.693 128.551 369.149 129.067 368.462 129.582C367.774 130.098 366.958 130.542 366.013 130.914C365.096 131.258 364.093 131.43 363.005 131.43C361.028 131.43 359.238 130.928 357.634 129.926C356.03 128.895 354.755 127.491 353.81 125.715C352.893 123.911 352.435 121.848 352.435 119.528C352.435 117.179 352.893 115.117 353.81 113.341C354.755 111.536 356.016 110.133 357.591 109.13C359.167 108.099 360.914 107.583 362.833 107.583C364.065 107.583 365.196 107.769 366.227 108.142C367.259 108.514 368.147 108.987 368.891 109.56C369.665 110.133 370.252 110.72 370.653 111.321C371.083 111.894 371.297 112.381 371.297 112.782L369.751 113.341V110.204C369.751 109.459 369.994 108.844 370.481 108.357C370.968 107.841 371.584 107.583 372.329 107.583ZM363.649 126.703C364.91 126.703 366.013 126.388 366.958 125.758C367.903 125.128 368.634 124.269 369.149 123.18C369.693 122.092 369.966 120.874 369.966 119.528C369.966 118.153 369.693 116.921 369.149 115.833C368.634 114.744 367.903 113.885 366.958 113.255C366.013 112.625 364.91 112.31 363.649 112.31C362.418 112.31 361.329 112.625 360.384 113.255C359.439 113.885 358.694 114.744 358.15 115.833C357.634 116.921 357.376 118.153 357.376 119.528C357.376 120.874 357.634 122.092 358.15 123.18C358.694 124.269 359.439 125.128 360.384 125.758C361.329 126.388 362.418 126.703 363.649 126.703ZM397.127 108.013C397.872 108.013 398.488 108.271 398.975 108.786C399.462 109.273 399.705 109.889 399.705 110.634V121.547C399.705 124.584 398.86 126.99 397.17 128.766C395.48 130.542 393.046 131.43 389.866 131.43C386.687 131.43 384.252 130.542 382.562 128.766C380.9 126.99 380.07 124.584 380.07 121.547V110.634C380.07 109.889 380.313 109.273 380.8 108.786C381.287 108.271 381.903 108.013 382.648 108.013C383.392 108.013 384.008 108.271 384.495 108.786C384.982 109.273 385.226 109.889 385.226 110.634V121.547C385.226 123.295 385.612 124.598 386.386 125.457C387.159 126.288 388.319 126.703 389.866 126.703C391.442 126.703 392.616 126.288 393.389 125.457C394.163 124.598 394.549 123.295 394.549 121.547V110.634C394.549 109.889 394.793 109.273 395.28 108.786C395.767 108.271 396.383 108.013 397.127 108.013ZM405.76 108.013C406.591 108.013 407.293 108.371 407.865 109.087L422.216 126.918C422.589 127.376 422.775 127.892 422.775 128.465C422.775 129.181 422.503 129.797 421.958 130.313C421.414 130.828 420.813 131.086 420.154 131.086C419.323 131.086 418.621 130.714 418.049 129.969L403.698 112.138C403.325 111.679 403.139 111.164 403.139 110.591C403.139 109.846 403.397 109.23 403.913 108.743C404.457 108.256 405.073 108.013 405.76 108.013ZM405.803 131.043C405.23 131.043 404.657 130.828 404.084 130.398C403.54 129.94 403.268 129.396 403.268 128.766C403.268 128.193 403.483 127.649 403.913 127.133L410.486 119.098L413.064 123.395L407.865 129.969C407.321 130.685 406.634 131.043 405.803 131.043ZM420.111 108.013C420.798 108.013 421.371 108.256 421.83 108.743C422.317 109.202 422.56 109.732 422.56 110.333C422.56 110.619 422.517 110.906 422.431 111.192C422.345 111.479 422.188 111.751 421.958 112.009L415.471 119.915L412.764 116.177L418.049 109.173C418.621 108.4 419.309 108.013 420.111 108.013ZM457.087 107.583C457.832 107.583 458.448 107.827 458.935 108.314C459.422 108.801 459.665 109.431 459.665 110.204V128.379C459.665 129.124 459.422 129.754 458.935 130.27C458.448 130.757 457.832 131 457.087 131C456.342 131 455.726 130.757 455.24 130.27C454.753 129.754 454.509 129.124 454.509 128.379V126.274L455.454 126.66C455.454 127.033 455.254 127.491 454.853 128.035C454.452 128.551 453.908 129.067 453.22 129.582C452.533 130.098 451.716 130.542 450.771 130.914C449.854 131.258 448.852 131.43 447.763 131.43C445.787 131.43 443.997 130.928 442.392 129.926C440.788 128.895 439.514 127.491 438.568 125.715C437.652 123.911 437.194 121.848 437.194 119.528C437.194 117.179 437.652 115.117 438.568 113.341C439.514 111.536 440.774 110.133 442.35 109.13C443.925 108.099 445.672 107.583 447.591 107.583C448.823 107.583 449.955 107.769 450.986 108.142C452.017 108.514 452.905 108.987 453.65 109.56C454.423 110.133 455.01 110.72 455.411 111.321C455.841 111.894 456.056 112.381 456.056 112.782L454.509 113.341V110.204C454.509 109.459 454.753 108.844 455.24 108.357C455.726 107.841 456.342 107.583 457.087 107.583ZM448.408 126.703C449.668 126.703 450.771 126.388 451.716 125.758C452.662 125.128 453.392 124.269 453.908 123.18C454.452 122.092 454.724 120.874 454.724 119.528C454.724 118.153 454.452 116.921 453.908 115.833C453.392 114.744 452.662 113.885 451.716 113.255C450.771 112.625 449.668 112.31 448.408 112.31C447.176 112.31 446.088 112.625 445.142 113.255C444.197 113.885 443.452 114.744 442.908 115.833C442.392 116.921 442.135 118.153 442.135 119.528C442.135 120.874 442.392 122.092 442.908 123.18C443.452 124.269 444.197 125.128 445.142 125.758C446.088 126.388 447.176 126.703 448.408 126.703ZM474.786 107.583C475.989 107.583 477.092 107.769 478.095 108.142C479.097 108.514 479.957 108.987 480.673 109.56C481.417 110.133 481.99 110.72 482.391 111.321C482.821 111.894 483.036 112.381 483.036 112.782L481.919 113.341V110.204C481.919 109.459 482.162 108.844 482.649 108.357C483.136 107.841 483.752 107.583 484.497 107.583C485.241 107.583 485.857 107.827 486.344 108.314C486.831 108.801 487.075 109.431 487.075 110.204V129.324C487.075 131.816 486.53 133.807 485.442 135.297C484.382 136.815 482.979 137.903 481.231 138.562C479.484 139.25 477.608 139.593 475.603 139.593C475.03 139.593 474.285 139.522 473.368 139.378C472.452 139.235 471.578 139.063 470.747 138.863C469.917 138.662 469.287 138.476 468.857 138.304C467.998 137.932 467.396 137.459 467.052 136.886C466.737 136.342 466.68 135.755 466.88 135.125C467.138 134.294 467.554 133.721 468.126 133.406C468.699 133.12 469.301 133.091 469.931 133.32C470.218 133.406 470.69 133.578 471.349 133.836C472.008 134.094 472.724 134.323 473.497 134.523C474.299 134.752 475.001 134.867 475.603 134.867C477.751 134.867 479.341 134.437 480.372 133.578C481.403 132.719 481.919 131.53 481.919 130.012V126.274L482.434 126.66C482.434 127.033 482.234 127.491 481.833 128.035C481.46 128.551 480.931 129.067 480.243 129.582C479.584 130.098 478.797 130.542 477.88 130.914C476.963 131.258 475.989 131.43 474.958 131.43C472.924 131.43 471.091 130.928 469.458 129.926C467.826 128.895 466.537 127.491 465.591 125.715C464.646 123.911 464.174 121.848 464.174 119.528C464.174 117.179 464.646 115.117 465.591 113.341C466.537 111.536 467.811 110.133 469.415 109.13C471.02 108.099 472.81 107.583 474.786 107.583ZM475.603 112.31C474.314 112.31 473.182 112.625 472.208 113.255C471.234 113.885 470.475 114.744 469.931 115.833C469.387 116.921 469.115 118.153 469.115 119.528C469.115 120.874 469.387 122.092 469.931 123.18C470.475 124.269 471.234 125.128 472.208 125.758C473.182 126.388 474.314 126.703 475.603 126.703C476.92 126.703 478.066 126.388 479.04 125.758C480.014 125.128 480.773 124.269 481.317 123.18C481.861 122.092 482.134 120.874 482.134 119.528C482.134 118.153 481.861 116.921 481.317 115.833C480.773 114.744 480.014 113.885 479.04 113.255C478.066 112.625 476.92 112.31 475.603 112.31ZM495.225 131C494.481 131 493.865 130.757 493.378 130.27C492.891 129.754 492.647 129.124 492.647 128.379V110.634C492.647 109.889 492.891 109.273 493.378 108.786C493.865 108.271 494.481 108.013 495.225 108.013C495.97 108.013 496.586 108.271 497.073 108.786C497.56 109.273 497.803 109.889 497.803 110.634V114.673L497.503 111.794C497.818 111.106 498.219 110.505 498.706 109.989C499.221 109.445 499.794 109.001 500.424 108.657C501.054 108.285 501.728 108.013 502.444 107.841C503.16 107.669 503.876 107.583 504.592 107.583C505.451 107.583 506.167 107.827 506.74 108.314C507.342 108.801 507.643 109.373 507.643 110.032C507.643 110.978 507.399 111.665 506.912 112.095C506.425 112.496 505.895 112.696 505.322 112.696C504.778 112.696 504.277 112.596 503.819 112.395C503.389 112.195 502.888 112.095 502.315 112.095C501.799 112.095 501.269 112.224 500.725 112.481C500.209 112.711 499.722 113.083 499.264 113.599C498.835 114.114 498.476 114.759 498.19 115.532C497.932 116.277 497.803 117.165 497.803 118.196V128.379C497.803 129.124 497.56 129.754 497.073 130.27C496.586 130.757 495.97 131 495.225 131ZM516.133 128.379C516.133 129.124 515.889 129.754 515.402 130.27C514.915 130.757 514.299 131 513.555 131C512.81 131 512.194 130.757 511.707 130.27C511.22 129.754 510.977 129.124 510.977 128.379V110.634C510.977 109.889 511.22 109.273 511.707 108.786C512.194 108.271 512.81 108.013 513.555 108.013C514.299 108.013 514.915 108.271 515.402 108.786C515.889 109.273 516.133 109.889 516.133 110.634V128.379ZM513.512 105.22C512.538 105.22 511.85 105.062 511.449 104.747C511.048 104.432 510.848 103.874 510.848 103.072V102.255C510.848 101.425 511.063 100.866 511.492 100.58C511.951 100.265 512.638 100.107 513.555 100.107C514.557 100.107 515.259 100.265 515.66 100.58C516.061 100.895 516.262 101.453 516.262 102.255V103.072C516.262 103.902 516.047 104.475 515.617 104.79C515.187 105.077 514.486 105.22 513.512 105.22ZM531.658 107.583C533.29 107.583 534.708 107.755 535.911 108.099C537.143 108.443 538.088 108.929 538.747 109.56C539.435 110.161 539.778 110.892 539.778 111.751C539.778 112.324 539.606 112.868 539.263 113.384C538.919 113.871 538.418 114.114 537.759 114.114C537.301 114.114 536.914 114.057 536.599 113.942C536.312 113.799 536.055 113.627 535.825 113.427C535.596 113.226 535.324 113.04 535.009 112.868C534.723 112.696 534.279 112.567 533.677 112.481C533.104 112.367 532.675 112.31 532.388 112.31C530.927 112.31 529.681 112.625 528.65 113.255C527.647 113.885 526.874 114.744 526.33 115.833C525.786 116.893 525.513 118.124 525.513 119.528C525.513 120.903 525.786 122.135 526.33 123.223C526.903 124.283 527.676 125.128 528.65 125.758C529.653 126.388 530.798 126.703 532.087 126.703C532.803 126.703 533.419 126.66 533.935 126.574C534.45 126.489 534.88 126.36 535.224 126.188C535.625 125.959 535.983 125.715 536.298 125.457C536.613 125.2 537.086 125.071 537.716 125.071C538.461 125.071 539.034 125.314 539.435 125.801C539.836 126.259 540.036 126.832 540.036 127.52C540.036 128.236 539.635 128.895 538.833 129.496C538.031 130.069 536.971 130.542 535.654 130.914C534.365 131.258 532.961 131.43 531.443 131.43C529.18 131.43 527.218 130.914 525.556 129.883C523.895 128.823 522.606 127.391 521.689 125.586C520.801 123.782 520.357 121.762 520.357 119.528C520.357 117.179 520.83 115.117 521.775 113.341C522.749 111.536 524.081 110.133 525.771 109.13C527.49 108.099 529.452 107.583 531.658 107.583ZM566.054 119.528C566.054 121.877 565.524 123.953 564.464 125.758C563.433 127.534 562.029 128.923 560.253 129.926C558.506 130.928 556.544 131.43 554.367 131.43C552.19 131.43 550.213 130.928 548.437 129.926C546.69 128.923 545.287 127.534 544.227 125.758C543.196 123.953 542.68 121.877 542.68 119.528C542.68 117.179 543.196 115.117 544.227 113.341C545.287 111.536 546.69 110.133 548.437 109.13C550.213 108.099 552.19 107.583 554.367 107.583C556.544 107.583 558.506 108.099 560.253 109.13C562.029 110.133 563.433 111.536 564.464 113.341C565.524 115.117 566.054 117.179 566.054 119.528ZM560.898 119.528C560.898 118.067 560.597 116.807 559.995 115.747C559.423 114.658 558.635 113.813 557.632 113.212C556.658 112.61 555.57 112.31 554.367 112.31C553.164 112.31 552.061 112.61 551.058 113.212C550.085 113.813 549.297 114.658 548.695 115.747C548.122 116.807 547.836 118.067 547.836 119.528C547.836 120.96 548.122 122.22 548.695 123.309C549.297 124.369 550.085 125.2 551.058 125.801C552.061 126.403 553.164 126.703 554.367 126.703C555.57 126.703 556.658 126.403 557.632 125.801C558.635 125.2 559.423 124.369 559.995 123.309C560.597 122.22 560.898 120.96 560.898 119.528ZM576.152 128.379C576.152 129.124 575.894 129.754 575.379 130.27C574.892 130.757 574.276 131 573.531 131C572.815 131 572.213 130.757 571.726 130.27C571.239 129.754 570.996 129.124 570.996 128.379V101.826C570.996 101.081 571.239 100.465 571.726 99.9781C572.242 99.4625 572.872 99.2047 573.617 99.2047C574.362 99.2047 574.963 99.4625 575.422 99.9781C575.908 100.465 576.152 101.081 576.152 101.826V128.379ZM592.555 131.43C590.12 131.43 588.001 130.928 586.196 129.926C584.42 128.895 583.045 127.505 582.071 125.758C581.126 124.011 580.653 122.034 580.653 119.829C580.653 117.251 581.169 115.059 582.2 113.255C583.26 111.422 584.635 110.018 586.325 109.044C588.015 108.07 589.805 107.583 591.696 107.583C593.157 107.583 594.532 107.884 595.821 108.485C597.138 109.087 598.298 109.918 599.301 110.978C600.303 112.009 601.091 113.212 601.664 114.587C602.266 115.962 602.566 117.423 602.566 118.969C602.538 119.657 602.266 120.215 601.75 120.645C601.234 121.075 600.633 121.29 599.945 121.29H583.532L582.243 116.993H598.012L597.067 117.852V116.692C597.009 115.861 596.709 115.117 596.164 114.458C595.649 113.799 594.99 113.283 594.188 112.911C593.414 112.51 592.584 112.31 591.696 112.31C590.836 112.31 590.034 112.424 589.29 112.653C588.545 112.882 587.9 113.269 587.356 113.813C586.812 114.358 586.382 115.088 586.067 116.005C585.752 116.921 585.595 118.081 585.595 119.485C585.595 121.032 585.91 122.349 586.54 123.438C587.199 124.498 588.029 125.314 589.032 125.887C590.063 126.431 591.152 126.703 592.297 126.703C593.357 126.703 594.202 126.617 594.832 126.446C595.463 126.274 595.964 126.073 596.336 125.844C596.737 125.586 597.095 125.371 597.41 125.2C597.926 124.942 598.413 124.813 598.871 124.813C599.501 124.813 600.017 125.028 600.418 125.457C600.848 125.887 601.063 126.388 601.063 126.961C601.063 127.735 600.661 128.436 599.859 129.067C599.115 129.697 598.069 130.255 596.723 130.742C595.377 131.201 593.987 131.43 592.555 131.43ZM605.739 127.434C605.453 127.033 605.324 126.517 605.352 125.887C605.381 125.257 605.753 124.713 606.47 124.254C606.928 123.968 607.415 123.853 607.93 123.911C608.446 123.939 608.947 124.197 609.434 124.684C610.265 125.515 611.139 126.159 612.055 126.617C612.972 127.076 614.118 127.305 615.493 127.305C615.922 127.276 616.395 127.219 616.91 127.133C617.426 127.018 617.87 126.789 618.242 126.446C618.643 126.073 618.844 125.515 618.844 124.77C618.844 124.14 618.629 123.638 618.199 123.266C617.77 122.894 617.197 122.579 616.481 122.321C615.793 122.063 615.02 121.819 614.161 121.59C613.273 121.333 612.356 121.046 611.411 120.731C610.494 120.416 609.649 120.015 608.876 119.528C608.102 119.012 607.472 118.339 606.985 117.508C606.498 116.678 606.255 115.632 606.255 114.372C606.255 112.94 606.656 111.722 607.458 110.72C608.26 109.717 609.291 108.944 610.551 108.4C611.84 107.855 613.187 107.583 614.59 107.583C615.478 107.583 616.409 107.698 617.383 107.927C618.357 108.127 619.288 108.471 620.176 108.958C621.064 109.416 621.809 110.032 622.41 110.806C622.725 111.235 622.911 111.751 622.969 112.352C623.026 112.954 622.754 113.498 622.152 113.985C621.723 114.329 621.221 114.486 620.649 114.458C620.076 114.401 619.603 114.2 619.231 113.856C618.744 113.226 618.085 112.725 617.254 112.352C616.452 111.98 615.521 111.794 614.461 111.794C614.032 111.794 613.559 111.851 613.043 111.966C612.557 112.052 612.127 112.267 611.754 112.61C611.382 112.925 611.196 113.441 611.196 114.157C611.196 114.816 611.411 115.346 611.84 115.747C612.27 116.119 612.843 116.434 613.559 116.692C614.304 116.921 615.092 117.15 615.922 117.38C616.782 117.609 617.655 117.881 618.543 118.196C619.431 118.511 620.248 118.926 620.992 119.442C621.737 119.958 622.339 120.631 622.797 121.461C623.255 122.263 623.484 123.295 623.484 124.555C623.484 126.016 623.055 127.262 622.195 128.293C621.336 129.324 620.262 130.112 618.973 130.656C617.684 131.172 616.366 131.43 615.02 131.43C613.33 131.43 611.64 131.143 609.95 130.57C608.26 129.969 606.856 128.923 605.739 127.434Z" fill="#F9F9F9"/>
<path d="M0 88L40.586 24.3H61.698L76.804 88H55.419L45.136 34.219H53.508L22.659 88H0ZM18.746 76.898L27.3 61.428H56.602L58.968 76.898H18.746Z" fill="#756732"/>
<path d="M102.81 106.564C97.7748 106.564 93.1641 106.048 88.9781 105.017C84.8528 103.986 81.2431 102.439 78.1491 100.376L86.8851 86.362C88.8871 87.8787 91.3441 89.0617 94.2561 89.911C97.2288 90.821 100.201 91.276 103.174 91.276C107.178 91.276 110.09 90.4267 111.91 88.728C113.73 87.09 114.943 84.7847 115.55 81.812L116.824 75.442L120.555 61.246L123.74 45.776L125.196 38.223H144.761L136.844 77.99C134.842 88.1213 130.899 95.4013 125.014 99.83C119.19 104.319 111.789 106.564 102.81 106.564ZM103.265 85.27C99.6251 85.27 96.1671 84.4207 92.8911 82.722C89.6151 81.0233 86.9458 78.5663 84.8831 75.351C82.8204 72.1357 81.7891 68.2833 81.7891 63.794C81.7891 60.0933 82.4564 56.6657 83.7911 53.511C85.1864 50.2957 87.0974 47.4747 89.5241 45.048C92.0114 42.6213 94.8628 40.7407 98.0781 39.406C101.354 38.0107 104.842 37.313 108.543 37.313C112.244 37.313 115.459 38.041 118.189 39.497C120.98 40.953 122.982 43.4403 124.195 46.959C125.408 50.417 125.499 55.1793 124.468 61.246C123.558 66.706 122.132 71.2257 120.191 74.805C118.25 78.3237 115.853 80.9627 113.002 82.722C110.151 84.4207 106.905 85.27 103.265 85.27ZM109.817 69.163C111.576 69.163 113.123 68.799 114.458 68.071C115.793 67.2823 116.824 66.1903 117.552 64.795C118.28 63.3997 118.644 61.7617 118.644 59.881C118.644 58.0003 118.007 56.4837 116.733 55.331C115.52 54.1177 113.76 53.511 111.455 53.511C109.696 53.511 108.149 53.9053 106.814 54.694C105.479 55.422 104.418 56.4837 103.629 57.879C102.901 59.2743 102.537 60.9123 102.537 62.793C102.537 64.6737 103.174 66.2207 104.448 67.434C105.783 68.5867 107.572 69.163 109.817 69.163Z" fill="#756732"/>
<path d="M143.845 88L153.764 38.223H173.147L170.326 52.328L168.415 48.324C170.478 44.3807 173.329 41.5597 176.969 39.861C180.67 38.1623 184.886 37.313 189.618 37.313L185.978 55.513C185.129 55.3917 184.34 55.3007 183.612 55.24C182.945 55.1793 182.247 55.149 181.519 55.149C178.122 55.149 175.362 55.9073 173.238 57.424C171.176 58.9407 169.78 61.4583 169.052 64.977L164.411 88H143.845Z" fill="#756732"/>
<path d="M185.346 88L195.265 38.223H215.74L205.821 88H185.346ZM207.732 34.219C204.153 34.219 201.302 33.2787 199.178 31.398C197.116 29.5173 196.084 27.212 196.084 24.482C196.084 21.2667 197.267 18.5973 199.633 16.474C202.06 14.3507 205.245 13.289 209.188 13.289C212.768 13.289 215.589 14.1687 217.651 15.928C219.775 17.6873 220.836 19.932 220.836 22.662C220.836 26.0593 219.623 28.85 217.196 31.034C214.83 33.1573 211.676 34.219 207.732 34.219Z" fill="#756732"/>
<path d="M240.874 89.456C237.113 89.456 233.503 89.183 230.045 88.637C226.587 88.091 223.432 87.3327 220.581 86.362C217.79 85.3307 215.364 84.2083 213.301 82.995L221.582 67.161C223.948 68.4957 226.314 69.618 228.68 70.528C231.107 71.3773 233.503 72.0143 235.869 72.439C238.296 72.8637 240.692 73.076 243.058 73.076C244.939 73.076 246.486 72.9243 247.699 72.621C248.973 72.3177 249.913 71.893 250.52 71.347C251.187 70.7403 251.521 70.073 251.521 69.345C251.521 68.3743 250.975 67.5857 249.883 66.979C248.791 66.3723 247.335 65.8263 245.515 65.341C243.756 64.8557 241.784 64.3703 239.6 63.885C237.477 63.339 235.323 62.6717 233.139 61.883C230.955 61.0337 228.953 59.972 227.133 58.698C225.374 57.424 223.948 55.8163 222.856 53.875C221.764 51.9337 221.218 49.5677 221.218 46.777C221.218 41.9237 222.492 37.7073 225.04 34.128C227.649 30.5487 231.349 27.7883 236.142 25.847C240.995 23.845 246.759 22.844 253.432 22.844C258.164 22.844 262.562 23.3293 266.627 24.3C270.753 25.21 274.302 26.5447 277.274 28.304L269.539 43.956C266.991 42.3787 264.2 41.1957 261.167 40.407C258.194 39.6183 255.161 39.224 252.067 39.224C250.004 39.224 248.275 39.4363 246.88 39.861C245.485 40.225 244.423 40.7407 243.695 41.408C243.028 42.0753 242.694 42.773 242.694 43.501C242.694 44.4717 243.24 45.2907 244.332 45.958C245.424 46.5647 246.88 47.1107 248.7 47.596C250.52 48.0207 252.492 48.506 254.615 49.052C256.799 49.5373 258.953 50.1743 261.076 50.963C263.26 51.691 265.262 52.692 267.082 53.966C268.902 55.1793 270.358 56.7567 271.45 58.698C272.542 60.5787 273.088 62.9143 273.088 65.705C273.088 70.437 271.784 74.5927 269.175 78.172C266.567 81.6907 262.835 84.451 257.982 86.453C253.189 88.455 247.487 89.456 240.874 89.456Z" fill="#756732"/>
<path d="M304.413 88.91C298.953 88.91 294.16 87.9697 290.035 86.089C285.97 84.2083 282.785 81.539 280.48 78.081C278.174 74.623 277.022 70.5583 277.022 65.887C277.022 60.427 278.296 55.5433 280.844 51.236C283.392 46.9287 286.971 43.5313 291.582 41.044C296.253 38.5567 301.683 37.313 307.871 37.313C313.209 37.313 317.759 38.2533 321.521 40.134C325.282 42.0147 328.164 44.593 330.166 47.869C332.168 51.145 333.169 54.9367 333.169 59.244C333.169 60.7607 333.047 62.247 332.805 63.703C332.623 65.159 332.38 66.5543 332.077 67.889H293.402L295.313 57.97H322.613L314.059 60.609C314.544 58.6677 314.514 57.0297 313.968 55.695C313.482 54.2997 312.633 53.238 311.42 52.51C310.206 51.7213 308.72 51.327 306.961 51.327C304.473 51.327 302.502 51.9943 301.046 53.329C299.59 54.6637 298.528 56.3927 297.861 58.516C297.254 60.6393 296.951 62.8537 296.951 65.159C296.951 68.253 297.77 70.4673 299.408 71.802C301.106 73.076 303.563 73.713 306.779 73.713C308.659 73.713 310.54 73.44 312.421 72.894C314.301 72.2873 316.03 71.4077 317.608 70.255L326.162 82.722C322.764 85.0273 319.215 86.635 315.515 87.545C311.875 88.455 308.174 88.91 304.413 88.91Z" fill="#756732"/>
<path d="M333.755 88L343.674 38.223H363.057L360.236 52.328L358.325 48.324C360.387 44.3807 363.239 41.5597 366.879 39.861C370.579 38.1623 374.796 37.313 379.528 37.313L375.888 55.513C375.038 55.3917 374.25 55.3007 373.522 55.24C372.854 55.1793 372.157 55.149 371.429 55.149C368.031 55.149 365.271 55.9073 363.148 57.424C361.085 58.9407 359.69 61.4583 358.962 64.977L354.321 88H333.755Z" fill="#756732"/>
<path d="M390.785 88L380.684 38.223H400.977L408.439 78.718H397.792L421.725 38.223H442.018L412.079 88H390.785Z" fill="#756732"/>
<path d="M435.152 88L445.071 38.223H465.546L455.627 88H435.152ZM457.538 34.219C453.959 34.219 451.107 33.2787 448.984 31.398C446.921 29.5173 445.89 27.212 445.89 24.482C445.89 21.2667 447.073 18.5973 449.439 16.474C451.866 14.3507 455.051 13.289 458.994 13.289C462.573 13.289 465.394 14.1687 467.457 15.928C469.58 17.6873 470.642 19.932 470.642 22.662C470.642 26.0593 469.429 28.85 467.002 31.034C464.636 33.1573 461.481 34.219 457.538 34.219Z" fill="#756732"/>
<path d="M494.047 88.91C488.587 88.91 483.824 87.9697 479.76 86.089C475.695 84.1477 472.54 81.448 470.296 77.99C468.051 74.532 466.929 70.4977 466.929 65.887C466.929 60.427 468.263 55.5433 470.933 51.236C473.602 46.9287 477.303 43.5313 482.035 41.044C486.767 38.5567 492.196 37.313 498.324 37.313C504.269 37.313 509.426 38.6173 513.794 41.226C518.162 43.8347 521.225 47.3837 522.985 51.873L505.513 59.881C504.663 57.5757 503.511 55.9377 502.055 54.967C500.659 53.9963 499.082 53.511 497.323 53.511C495.503 53.511 493.865 53.9963 492.409 54.967C490.953 55.877 489.8 57.151 488.951 58.789C488.162 60.427 487.768 62.3683 487.768 64.613C487.768 66.979 488.435 68.9203 489.77 70.437C491.105 71.9537 493.046 72.712 495.594 72.712C497.596 72.712 499.355 72.2267 500.872 71.256C502.388 70.2853 503.723 68.6473 504.876 66.342L519.891 75.078C517.464 79.446 514.006 82.8433 509.517 85.27C505.088 87.6967 499.931 88.91 494.047 88.91Z" fill="#756732"/>
<path d="M549.864 88.91C544.404 88.91 539.611 87.9697 535.486 86.089C531.421 84.2083 528.236 81.539 525.931 78.081C523.626 74.623 522.473 70.5583 522.473 65.887C522.473 60.427 523.747 55.5433 526.295 51.236C528.843 46.9287 532.422 43.5313 537.033 41.044C541.704 38.5567 547.134 37.313 553.322 37.313C558.661 37.313 563.211 38.2533 566.972 40.134C570.733 42.0147 573.615 44.593 575.617 47.869C577.619 51.145 578.62 54.9367 578.62 59.244C578.62 60.7607 578.499 62.247 578.256 63.703C578.074 65.159 577.831 66.5543 577.528 67.889H538.853L540.764 57.97H568.064L559.51 60.609C559.995 58.6677 559.965 57.0297 559.419 55.695C558.934 54.2997 558.084 53.238 556.871 52.51C555.658 51.7213 554.171 51.327 552.412 51.327C549.925 51.327 547.953 51.9943 546.497 53.329C545.041 54.6637 543.979 56.3927 543.312 58.516C542.705 60.6393 542.402 62.8537 542.402 65.159C542.402 68.253 543.221 70.4673 544.859 71.802C546.558 73.076 549.015 73.713 552.23 73.713C554.111 73.713 555.991 73.44 557.872 72.894C559.753 72.2873 561.482 71.4077 563.059 70.255L571.613 82.722C568.216 85.0273 564.667 86.635 560.966 87.545C557.326 88.455 553.625 88.91 549.864 88.91Z" fill="#756732"/>
<path d="M599.954 88.91C595.525 88.91 591.309 88.4853 587.305 87.636C583.361 86.726 580.298 85.634 578.114 84.36L585.212 70.346C587.699 71.8627 590.49 73.0153 593.584 73.804C596.738 74.532 599.711 74.896 602.502 74.896C604.807 74.896 606.384 74.6837 607.234 74.259C608.144 73.7737 608.599 73.1973 608.599 72.53C608.599 71.802 607.992 71.2863 606.779 70.983C605.565 70.619 603.988 70.3157 602.047 70.073C600.166 69.8303 598.164 69.4663 596.041 68.981C593.917 68.4957 591.885 67.798 589.944 66.888C588.063 65.9173 586.516 64.5827 585.303 62.884C584.089 61.1853 583.483 58.9407 583.483 56.15C583.483 51.8427 584.726 48.324 587.214 45.594C589.762 42.8033 593.159 40.7407 597.406 39.406C601.652 38.0107 606.354 37.313 611.511 37.313C615.151 37.313 618.639 37.6467 621.976 38.314C625.373 38.9207 628.376 39.8307 630.985 41.044L623.887 55.058C621.278 53.5413 618.669 52.5403 616.061 52.055C613.513 51.5697 611.177 51.327 609.054 51.327C606.688 51.327 605.05 51.6 604.14 52.146C603.23 52.6313 602.775 53.1773 602.775 53.784C602.775 54.512 603.381 55.058 604.595 55.422C605.808 55.786 607.355 56.1197 609.236 56.423C611.116 56.6657 613.118 57.0297 615.242 57.515C617.426 57.9397 619.458 58.6373 621.339 59.608C623.219 60.518 624.766 61.8223 625.98 63.521C627.193 65.2197 627.8 67.4643 627.8 70.255C627.8 74.3803 626.526 77.8383 623.978 80.629C621.49 83.4197 618.123 85.5127 613.877 86.908C609.691 88.2427 605.05 88.91 599.954 88.91Z" fill="#756732"/>
<path d="M115.734 28H112.657C103.311 28 95.734 35.5767 95.734 44.9231C95.734 46.6224 97.1116 48 98.8109 48H108.734C112.6 48 115.734 44.866 115.734 41V28Z" fill="#756732"/>
<path d="M71.8762 52.14V55.2169C71.8762 64.5633 79.4529 72.14 88.7993 72.14C90.4986 72.14 91.8762 70.7624 91.8762 69.0631V59.14C91.8762 55.274 88.7422 52.14 84.8762 52.14H71.8762Z" fill="#756732"/>
</svg>
