<svg width="300" height="300" viewBox="0 0 300 300" fill="none" xmlns="http://www.w3.org/2000/svg">
<circle cx="150" cy="149.829" r="95.7543" stroke="#756732" stroke-width="20"/>
<path d="M181.726 0L171.964 0C142.312 0 118.274 24.0381 118.274 53.6907V53.6907C118.274 59.082 122.644 63.4526 128.036 63.4526H174.726C178.592 63.4526 181.726 60.3186 181.726 56.4526V0Z" fill="#756732"/>
<path d="M118.274 300H128.036C157.688 300 181.726 275.962 181.726 246.309V246.309C181.726 240.918 177.356 236.547 171.964 236.547H125.274C121.408 236.547 118.274 239.681 118.274 243.547V300Z" fill="#756732"/>
<path d="M0 118.274L0 128.036C0 157.688 24.0381 181.726 53.6907 181.726V181.726C59.082 181.726 63.4526 177.356 63.4526 171.964L63.4526 125.274C63.4526 121.408 60.3186 118.274 56.4526 118.274H0Z" fill="#756732"/>
<path d="M300 181.726V171.964C300 142.312 275.962 118.274 246.309 118.274V118.274C240.918 118.274 236.547 122.644 236.547 128.036V174.726C236.547 178.592 239.681 181.726 243.547 181.726H300Z" fill="#756732"/>
<path d="M21.5 233.632L28.4028 240.535C49.3703 261.502 83.3653 261.502 104.333 240.535V240.535C108.145 236.723 108.145 230.542 104.333 226.729L71.3175 193.714C68.5839 190.98 64.1517 190.98 61.4181 193.714L21.5 233.632Z" fill="#756732"/>
<path d="M278.5 66.3679L271.597 59.4652C250.63 38.4977 216.635 38.4977 195.667 59.4652V59.4652C191.855 63.2775 191.855 69.4584 195.667 73.2706L228.682 106.286C231.416 109.02 235.848 109.02 238.582 106.286L278.5 66.3679Z" fill="#756732"/>
<path d="M233.632 278.5L240.535 271.597C261.502 250.63 261.502 216.635 240.535 195.667V195.667C236.723 191.855 230.542 191.855 226.729 195.667L193.714 228.682C190.98 231.416 190.98 235.848 193.714 238.582L233.632 278.5Z" fill="#756732"/>
<path d="M66.3678 21.5002L59.465 28.4029C38.4975 49.3704 38.4975 83.3654 59.465 104.333V104.333C63.2773 108.145 69.4582 108.145 73.2705 104.333L106.286 71.3177C109.019 68.584 109.019 64.1518 106.286 61.4182L66.3678 21.5002Z" fill="#756732"/>
<path d="M0 118H245C275.376 118 300 142.624 300 173V181H55C24.6243 181 0 156.376 0 126V118Z" fill="#141414"/>
<path d="M29 160.538L44.5032 136.206H52.5676L58.3379 160.538H50.1692L46.2412 139.995H49.4392L37.6554 160.538H29ZM36.1607 156.298L39.4282 150.388H50.621L51.5248 156.298H36.1607Z" fill="#756732"/>
<path d="M68.2718 167.63C66.3484 167.63 64.5872 167.433 62.9882 167.039C61.4124 166.645 60.0335 166.054 58.8517 165.266L62.1887 159.913C62.9534 160.492 63.892 160.944 65.0043 161.268C66.1398 161.616 67.2753 161.79 68.4108 161.79C69.9403 161.79 71.0526 161.465 71.7478 160.816C72.4431 160.191 72.9065 159.31 73.1383 158.175L73.6249 155.741L75.0501 150.319L76.2667 144.41L76.8229 141.524H84.2964L81.2722 156.715C80.5075 160.585 79.0012 163.366 76.7534 165.057C74.5287 166.772 71.7015 167.63 68.2718 167.63ZM68.4456 159.496C67.0552 159.496 65.7343 159.171 64.4829 158.522C63.2315 157.873 62.2119 156.935 61.424 155.707C60.6361 154.478 60.2421 153.007 60.2421 151.292C60.2421 149.878 60.497 148.569 61.0068 147.364C61.5398 146.136 62.2698 145.058 63.1968 144.131C64.1469 143.204 65.236 142.486 66.4642 141.976C67.7156 141.443 69.0481 141.177 70.4617 141.177C71.8753 141.177 73.1035 141.455 74.1463 142.011C75.2123 142.567 75.977 143.517 76.4405 144.861C76.904 146.182 76.9388 148.001 76.5448 150.319C76.1972 152.404 75.6526 154.131 74.9111 155.498C74.1695 156.842 73.2541 157.85 72.165 158.522C71.0758 159.171 69.836 159.496 68.4456 159.496ZM70.9484 153.343C71.6204 153.343 72.2113 153.204 72.7211 152.926C73.231 152.625 73.6249 152.207 73.903 151.674C74.1811 151.141 74.3201 150.516 74.3201 149.797C74.3201 149.079 74.0768 148.5 73.5902 148.059C73.1267 147.596 72.4546 147.364 71.574 147.364C70.902 147.364 70.3111 147.515 69.8013 147.816C69.2914 148.094 68.8859 148.5 68.5846 149.033C68.3066 149.566 68.1675 150.191 68.1675 150.91C68.1675 151.628 68.4108 152.219 68.8975 152.683C69.4073 153.123 70.0909 153.343 70.9484 153.343Z" fill="#756732"/>
<path d="M83.9466 160.538L87.7355 141.524H95.1395L94.0619 146.912L93.332 145.383C94.1199 143.877 95.209 142.799 96.5994 142.15C98.013 141.501 99.6236 141.177 101.431 141.177L100.041 148.129C99.7163 148.083 99.4151 148.048 99.137 148.025C98.8821 148.001 98.6156 147.99 98.3375 147.99C97.0398 147.99 95.9853 148.28 95.1743 148.859C94.3864 149.438 93.8534 150.4 93.5753 151.744L91.8025 160.538H83.9466Z" fill="#756732"/>
<path d="M99.7993 160.538L103.588 141.524H111.409L107.62 160.538H99.7993ZM108.35 139.995C106.983 139.995 105.894 139.636 105.083 138.917C104.295 138.199 103.901 137.318 103.901 136.276C103.901 135.047 104.353 134.028 105.257 133.217C106.184 132.406 107.4 132 108.907 132C110.274 132 111.351 132.336 112.139 133.008C112.95 133.68 113.356 134.538 113.356 135.58C113.356 136.878 112.892 137.944 111.966 138.778C111.062 139.589 109.857 139.995 108.35 139.995Z" fill="#756732"/>
<path d="M121.01 161.095C119.573 161.095 118.194 160.99 116.874 160.782C115.553 160.573 114.348 160.283 113.258 159.913C112.192 159.519 111.265 159.09 110.478 158.627L113.641 152.578C114.545 153.088 115.448 153.517 116.352 153.864C117.279 154.189 118.194 154.432 119.098 154.594C120.025 154.757 120.941 154.838 121.844 154.838C122.563 154.838 123.154 154.78 123.617 154.664C124.104 154.548 124.463 154.386 124.695 154.177C124.95 153.945 125.077 153.691 125.077 153.412C125.077 153.042 124.868 152.74 124.451 152.509C124.034 152.277 123.478 152.068 122.783 151.883C122.111 151.698 121.358 151.512 120.523 151.327C119.712 151.118 118.89 150.863 118.055 150.562C117.221 150.238 116.456 149.832 115.761 149.346C115.089 148.859 114.545 148.245 114.127 147.503C113.71 146.762 113.502 145.858 113.502 144.792C113.502 142.938 113.988 141.327 114.962 139.96C115.958 138.593 117.372 137.539 119.202 136.797C121.056 136.032 123.258 135.65 125.807 135.65C127.615 135.65 129.295 135.835 130.847 136.206C132.423 136.554 133.779 137.063 134.914 137.735L131.96 143.714C130.986 143.112 129.92 142.66 128.762 142.359C127.626 142.057 126.467 141.907 125.286 141.907C124.498 141.907 123.837 141.988 123.304 142.15C122.771 142.289 122.366 142.486 122.088 142.741C121.833 142.996 121.705 143.262 121.705 143.54C121.705 143.911 121.914 144.224 122.331 144.479C122.748 144.711 123.304 144.919 123.999 145.105C124.695 145.267 125.448 145.452 126.259 145.661C127.093 145.846 127.916 146.09 128.727 146.391C129.561 146.669 130.326 147.051 131.021 147.538C131.716 148.001 132.272 148.604 132.69 149.346C133.107 150.064 133.315 150.956 133.315 152.022C133.315 153.83 132.817 155.417 131.821 156.784C130.824 158.128 129.399 159.183 127.545 159.947C125.714 160.712 123.536 161.095 121.01 161.095Z" fill="#756732"/>
<path d="M145.281 160.886C143.195 160.886 141.364 160.527 139.789 159.808C138.236 159.09 137.019 158.07 136.139 156.749C135.258 155.429 134.818 153.876 134.818 152.092C134.818 150.006 135.304 148.14 136.278 146.495C137.251 144.85 138.618 143.552 140.38 142.602C142.164 141.652 144.238 141.177 146.602 141.177C148.641 141.177 150.379 141.536 151.816 142.254C153.253 142.973 154.353 143.958 155.118 145.209C155.883 146.46 156.265 147.909 156.265 149.554C156.265 150.133 156.219 150.701 156.126 151.257C156.057 151.813 155.964 152.346 155.848 152.856H141.075L141.805 149.067H152.233L148.965 150.075C149.151 149.334 149.139 148.708 148.931 148.198C148.745 147.665 148.421 147.26 147.957 146.982C147.494 146.681 146.926 146.53 146.254 146.53C145.304 146.53 144.551 146.785 143.995 147.295C143.438 147.804 143.033 148.465 142.778 149.276C142.546 150.087 142.43 150.933 142.43 151.814C142.43 152.995 142.743 153.841 143.369 154.351C144.018 154.838 144.956 155.081 146.185 155.081C146.903 155.081 147.621 154.977 148.34 154.768C149.058 154.536 149.719 154.2 150.321 153.76L153.589 158.522C152.291 159.403 150.935 160.017 149.522 160.365C148.131 160.712 146.718 160.886 145.281 160.886Z" fill="#756732"/>
<path d="M156.489 160.538L160.278 141.524H167.682L166.604 146.912L165.874 145.383C166.662 143.877 167.751 142.799 169.142 142.15C170.555 141.501 172.166 141.177 173.973 141.177L172.583 148.129C172.259 148.083 171.957 148.048 171.679 148.025C171.424 148.001 171.158 147.99 170.88 147.99C169.582 147.99 168.528 148.28 167.716 148.859C166.929 149.438 166.396 150.4 166.118 151.744L164.345 160.538H156.489Z" fill="#756732"/>
<path d="M178.273 160.538L174.415 141.524H182.167L185.017 156.993H180.95L190.092 141.524H197.844L186.407 160.538H178.273Z" fill="#756732"/>
<path d="M195.221 160.538L199.01 141.524H206.831L203.042 160.538H195.221ZM203.772 139.995C202.405 139.995 201.316 139.636 200.505 138.917C199.717 138.199 199.323 137.318 199.323 136.276C199.323 135.047 199.775 134.028 200.678 133.217C201.605 132.406 202.822 132 204.328 132C205.696 132 206.773 132.336 207.561 133.008C208.372 133.68 208.778 134.538 208.778 135.58C208.778 136.878 208.314 137.944 207.387 138.778C206.483 139.589 205.278 139.995 203.772 139.995Z" fill="#756732"/>
<path d="M217.718 160.886C215.632 160.886 213.813 160.527 212.26 159.808C210.708 159.067 209.503 158.036 208.645 156.715C207.788 155.394 207.359 153.853 207.359 152.092C207.359 150.006 207.869 148.14 208.889 146.495C209.908 144.85 211.322 143.552 213.13 142.602C214.937 141.652 217.011 141.177 219.352 141.177C221.623 141.177 223.592 141.675 225.261 142.671C226.929 143.668 228.1 145.024 228.772 146.738L222.098 149.797C221.773 148.917 221.333 148.291 220.777 147.92C220.244 147.55 219.641 147.364 218.969 147.364C218.274 147.364 217.648 147.55 217.092 147.92C216.536 148.268 216.096 148.755 215.771 149.38C215.47 150.006 215.319 150.748 215.319 151.605C215.319 152.509 215.574 153.25 216.084 153.83C216.594 154.409 217.336 154.699 218.309 154.699C219.074 154.699 219.746 154.513 220.325 154.142C220.904 153.772 221.414 153.146 221.854 152.265L227.59 155.602C226.663 157.271 225.342 158.569 223.627 159.496C221.935 160.423 219.966 160.886 217.718 160.886Z" fill="#756732"/>
<path d="M239.039 160.886C236.953 160.886 235.123 160.527 233.547 159.808C231.994 159.09 230.778 158.07 229.897 156.749C229.017 155.429 228.576 153.876 228.576 152.092C228.576 150.006 229.063 148.14 230.036 146.495C231.009 144.85 232.377 143.552 234.138 142.602C235.922 141.652 237.996 141.177 240.36 141.177C242.399 141.177 244.137 141.536 245.574 142.254C247.011 142.973 248.112 143.958 248.876 145.209C249.641 146.46 250.023 147.909 250.023 149.554C250.023 150.133 249.977 150.701 249.884 151.257C249.815 151.813 249.722 152.346 249.606 152.856H234.833L235.563 149.067H245.991L242.724 150.075C242.909 149.334 242.898 148.708 242.689 148.198C242.504 147.665 242.179 147.26 241.716 146.982C241.252 146.681 240.684 146.53 240.012 146.53C239.062 146.53 238.309 146.785 237.753 147.295C237.197 147.804 236.791 148.465 236.536 149.276C236.305 150.087 236.189 150.933 236.189 151.814C236.189 152.995 236.502 153.841 237.127 154.351C237.776 154.838 238.715 155.081 239.943 155.081C240.661 155.081 241.38 154.977 242.098 154.768C242.816 154.536 243.477 154.2 244.079 153.76L247.347 158.522C246.049 159.403 244.694 160.017 243.28 160.365C241.889 160.712 240.476 160.886 239.039 160.886Z" fill="#756732"/>
<path d="M258.173 160.886C256.481 160.886 254.87 160.724 253.341 160.399C251.835 160.052 250.664 159.635 249.83 159.148L252.541 153.795C253.492 154.374 254.558 154.814 255.739 155.116C256.944 155.394 258.08 155.533 259.146 155.533C260.027 155.533 260.629 155.452 260.953 155.29C261.301 155.104 261.475 154.884 261.475 154.629C261.475 154.351 261.243 154.154 260.78 154.038C260.316 153.899 259.714 153.783 258.972 153.691C258.254 153.598 257.489 153.459 256.678 153.273C255.867 153.088 255.091 152.822 254.349 152.474C253.631 152.103 253.04 151.593 252.576 150.944C252.113 150.296 251.881 149.438 251.881 148.372C251.881 146.727 252.356 145.383 253.306 144.34C254.279 143.274 255.577 142.486 257.199 141.976C258.821 141.443 260.617 141.177 262.587 141.177C263.978 141.177 265.31 141.304 266.585 141.559C267.882 141.791 269.029 142.138 270.026 142.602L267.315 147.955C266.318 147.376 265.322 146.993 264.325 146.808C263.352 146.623 262.46 146.53 261.649 146.53C260.745 146.53 260.119 146.634 259.772 146.843C259.424 147.028 259.25 147.237 259.25 147.468C259.25 147.747 259.482 147.955 259.945 148.094C260.409 148.233 261 148.361 261.718 148.476C262.437 148.569 263.201 148.708 264.012 148.894C264.847 149.056 265.623 149.322 266.341 149.693C267.06 150.041 267.651 150.539 268.114 151.188C268.578 151.837 268.809 152.694 268.809 153.76C268.809 155.336 268.323 156.657 267.349 157.723C266.399 158.789 265.113 159.588 263.491 160.121C261.892 160.631 260.119 160.886 258.173 160.886Z" fill="#756732"/>
<path d="M73.2085 137.619H72.0332C68.463 137.619 65.5688 140.514 65.5688 144.084C65.5688 144.733 66.0951 145.259 66.7442 145.259H70.5346C72.0114 145.259 73.2085 144.062 73.2085 142.585V137.619Z" fill="#756732"/>
<path d="M56.4556 146.84V148.016C56.4556 151.586 59.3497 154.48 62.9199 154.48C63.569 154.48 64.0952 153.954 64.0952 153.305V149.514C64.0952 148.038 62.8981 146.84 61.4213 146.84H56.4556Z" fill="#756732"/>
</svg>
